<svg id="Слой_1" data-name="Слой 1" xmlns="http://www.w3.org/2000/svg" xmlns:xlink="http://www.w3.org/1999/xlink" viewBox="0 0 390 560"><defs><style>.cls-1{fill:none;}.cls-2{clip-path:url(#clip-path);}.cls-3{fill:#0669b1;}.cls-4{fill:#ffe73c;}</style><clipPath id="clip-path"><rect class="cls-1" width="390" height="560"/></clipPath></defs><g class="cls-2"><polygon class="cls-3" points="2124.48 370.32 -1732.03 168.11 -1732.03 1.49 2124.48 0 2124.48 370.32"/><polygon class="cls-4" points="2122.03 560 -1734.48 560 -1734.48 167.93 2122.03 364.53 2122.03 560"/><polygon class="cls-4" points="13.9 243.18 27.02 243.87 18.07 256.72 13.9 243.18"/><polygon class="cls-4" points="22.81 230.4 35.93 231.09 26.98 243.93 22.81 230.4"/><polygon class="cls-4" points="9.76 229.72 22.88 230.41 13.93 243.25 9.76 229.72"/><polygon class="cls-4" points="31.73 217.58 44.85 218.27 35.9 231.12 31.73 217.58"/><polygon class="cls-4" points="18.68 216.9 31.8 217.59 22.85 230.44 18.68 216.9"/><polygon class="cls-4" points="40.66 204.78 53.78 205.48 44.83 218.32 40.66 204.78"/><polygon class="cls-4" points="27.6 204.1 40.73 204.8 31.77 217.64 27.6 204.1"/><polygon class="cls-4" points="14.51 203.41 27.63 204.1 18.68 216.95 14.51 203.41"/><polygon class="cls-4" points="1.46 202.73 14.58 203.42 5.63 216.27 1.46 202.73"/><polygon class="cls-4" points="49.58 191.97 62.7 192.67 53.75 205.51 49.58 191.97"/><polygon class="cls-4" points="36.52 191.29 49.65 191.99 40.69 204.83 36.52 191.29"/><polygon class="cls-4" points="23.43 190.6 36.55 191.29 27.6 204.14 23.43 190.6"/><polygon class="cls-4" points="10.38 189.92 23.5 190.61 14.54 203.46 10.38 189.92"/><polygon class="cls-4" points="-2.71 189.21 10.41 189.9 1.46 202.75 -2.71 189.21"/><polygon class="cls-4" points="58.51 179.15 71.63 179.84 62.68 192.68 58.51 179.15"/><polygon class="cls-4" points="45.46 178.47 58.58 179.16 49.63 192 45.46 178.47"/><polygon class="cls-4" points="32.36 177.77 45.48 178.47 36.53 191.31 32.36 177.77"/><polygon class="cls-4" points="19.31 177.09 32.43 177.79 23.48 190.63 19.31 177.09"/><polygon class="cls-4" points="6.22 176.38 19.35 177.07 10.39 189.92 6.22 176.38"/><polygon class="cls-4" points="-6.87 175.7 6.25 176.39 -2.7 189.24 -6.87 175.7"/><polygon class="cls-4" points="5.61 216.2 18.73 216.9 9.78 229.74 5.61 216.2"/><polygon class="cls-3" points="-12.72 281.58 0.4 282.27 -8.55 295.12 -12.72 281.58"/><polygon class="cls-3" points="-3.8 268.77 9.32 269.46 0.37 282.31 -3.8 268.77"/><polygon class="cls-3" points="5.13 255.94 18.26 256.63 9.3 269.48 5.13 255.94"/><polygon class="cls-3" points="-7.92 255.26 5.21 255.96 -3.75 268.8 -7.92 255.26"/><polygon class="cls-3" points="38.89 324.11 52.01 324.76 43.11 337.63 38.89 324.11"/><polygon class="cls-3" points="47.76 311.29 60.88 311.94 51.97 324.82 47.76 311.29"/><polygon class="cls-3" points="34.7 310.66 47.82 311.31 38.92 324.19 34.7 310.66"/><polygon class="cls-3" points="56.63 298.44 69.75 299.09 60.85 311.97 56.63 298.44"/><polygon class="cls-3" points="43.57 297.81 56.7 298.46 47.79 311.33 43.57 297.81"/><polygon class="cls-3" points="65.51 285.62 78.64 286.27 69.73 299.14 65.51 285.62"/><polygon class="cls-3" points="52.46 284.99 65.58 285.63 56.67 298.51 52.46 284.99"/><polygon class="cls-3" points="39.36 284.34 52.48 284.99 43.58 297.86 39.36 284.34"/><polygon class="cls-3" points="26.3 283.71 39.43 284.35 30.52 297.23 26.3 283.71"/><polygon class="cls-3" points="74.39 272.78 87.51 273.43 78.6 286.3 74.39 272.78"/><polygon class="cls-3" points="61.33 272.14 74.45 272.79 65.55 285.67 61.33 272.14"/><polygon class="cls-3" points="48.23 271.5 61.36 272.14 52.45 285.02 48.23 271.5"/><polygon class="cls-3" points="35.18 270.87 48.3 271.51 39.4 284.39 35.18 270.87"/><polygon class="cls-3" points="22.09 270.2 35.21 270.85 26.31 283.72 22.09 270.2"/><polygon class="cls-3" points="83.28 259.92 96.4 260.57 87.49 273.44 83.28 259.92"/><polygon class="cls-3" points="70.22 259.29 83.34 259.93 74.44 272.81 70.22 259.29"/><polygon class="cls-3" points="57.12 258.64 70.25 259.29 61.34 272.16 57.12 258.64"/><polygon class="cls-3" points="44.07 258.01 57.19 258.65 48.28 271.53 44.07 258.01"/><polygon class="cls-3" points="30.98 257.34 44.1 257.99 35.2 270.86 30.98 257.34"/><polygon class="cls-3" points="17.89 256.7 31.01 257.35 22.1 270.23 17.89 256.7"/><polygon class="cls-3" points="30.5 297.16 43.63 297.81 34.72 310.69 30.5 297.16"/><polygon class="cls-4" points="-35.23 333.79 -26.33 320.93 -26.33 320.93 -17.45 308.08 -17.46 308.08 -8.55 295.21 -8.55 295.22 0.31 282.41 0.3 282.41 9.2 269.53 9.2 269.54 18.07 256.72 22.29 270.24 22.28 270.24 26.48 283.69 26.46 283.69 30.65 297.12 30.65 297.12 34.87 310.63 34.87 310.63 39.09 324.15 39.08 324.15 43.29 337.65 30.19 337 30.2 337.01 17.07 336.36 17.09 336.34 4.05 335.7 4.05 335.71 -9.07 335.07 -9.07 335.06 -22.1 334.42 -22.1 334.43 -35.23 333.79"/><polygon class="cls-3" points="-8.54 295.26 -4.36 308.65 4.46 295.9 -8.54 295.26"/><polygon class="cls-3" points="0.34 282.41 4.52 295.83 13.36 283.05 0.34 282.41"/><polygon class="cls-3" points="17.56 296.54 17.55 296.54 17.55 296.54 4.54 295.9 4.55 295.91 4.52 295.9 8.71 309.34 17.56 296.54"/><polygon class="cls-3" points="8.74 309.37 12.92 322.77 21.75 310.01 8.74 309.37"/><polygon class="cls-3" points="9.22 269.6 13.4 282.98 22.21 270.24 9.22 269.6"/><polygon class="cls-3" points="13.42 283.05 13.42 283.06 13.4 283.06 17.59 296.49 26.44 283.69 13.42 283.05"/><polygon class="cls-3" points="17.62 296.55 21.79 309.93 30.61 297.19 17.62 296.55"/><polygon class="cls-3" points="21.81 310 21.82 310.01 21.8 310.01 25.99 323.46 34.86 310.64 21.81 310"/><polygon class="cls-3" points="30.18 336.98 39.06 324.15 25.98 323.51 30.18 336.98"/><polygon class="cls-3" points="17.1 336.32 25.97 323.5 25.96 323.5 25.98 323.49 12.94 322.84 12.94 322.85 12.9 322.85 17.1 336.32"/><polygon class="cls-3" points="4.03 335.63 12.87 322.85 -0.16 322.21 4.03 335.63"/><polygon class="cls-3" points="8.7 309.37 8.69 309.37 8.69 309.36 -4.34 308.72 -4.34 308.73 -4.36 308.73 -0.16 322.18 8.7 309.37"/><polygon class="cls-3" points="313.23 333.71 325.46 334.32 317.15 346.31 313.23 333.71"/><polygon class="cls-3" points="321.5 321.78 333.73 322.39 325.42 334.38 321.5 321.78"/><polygon class="cls-3" points="309.34 321.18 321.56 321.79 313.26 333.78 309.34 321.18"/><polygon class="cls-3" points="329.77 309.82 342 310.43 333.69 322.42 329.77 309.82"/><polygon class="cls-3" points="317.61 309.22 329.84 309.83 321.53 321.82 317.61 309.22"/><polygon class="cls-3" points="338.06 297.88 350.28 298.49 341.98 310.48 338.06 297.88"/><polygon class="cls-3" points="325.9 297.28 338.12 297.89 329.82 309.88 325.9 297.28"/><polygon class="cls-3" points="313.7 296.67 325.92 297.28 317.62 309.27 313.7 296.67"/><polygon class="cls-3" points="301.54 296.07 313.76 296.68 305.46 308.67 301.54 296.07"/><polygon class="cls-3" points="346.33 285.92 358.56 286.53 350.25 298.52 346.33 285.92"/><polygon class="cls-3" points="334.17 285.32 346.4 285.93 338.09 297.92 334.17 285.32"/><polygon class="cls-3" points="321.97 284.71 334.2 285.32 325.89 297.31 321.97 284.71"/><polygon class="cls-3" points="309.81 284.11 322.04 284.72 313.73 296.71 309.81 284.11"/><polygon class="cls-3" points="297.62 283.48 309.84 284.09 301.54 296.08 297.62 283.48"/><polygon class="cls-3" points="354.62 273.94 366.85 274.56 358.54 286.55 354.62 273.94"/><polygon class="cls-3" points="342.46 273.35 354.69 273.96 346.38 285.95 342.46 273.35"/><polygon class="cls-3" points="330.26 272.74 342.49 273.35 334.18 285.34 330.26 272.74"/><polygon class="cls-3" points="318.1 272.14 330.33 272.75 322.02 284.74 318.1 272.14"/><polygon class="cls-3" points="305.91 271.51 318.13 272.12 309.83 284.11 305.91 271.51"/><polygon class="cls-3" points="293.71 270.9 305.94 271.52 297.63 283.51 293.71 270.9"/><polygon class="cls-3" points="305.44 308.61 317.66 309.22 309.36 321.21 305.44 308.61"/><polygon class="cls-3" points="386.16 337.43 398.39 338.05 390.08 350.04 386.16 337.43"/><polygon class="cls-3" points="382.27 324.9 394.5 325.51 386.19 337.5 382.27 324.9"/><polygon class="cls-3" points="386.63 300.39 398.85 301 390.55 312.99 386.63 300.39"/><polygon class="cls-3" points="374.46 299.79 386.69 300.4 378.38 312.39 374.46 299.79"/><polygon class="cls-3" points="382.74 287.83 394.96 288.44 386.66 300.43 382.74 287.83"/><polygon class="cls-3" points="370.55 287.2 382.77 287.81 374.47 299.8 370.55 287.2"/><polygon class="cls-3" points="378.84 275.23 391.06 275.84 382.76 287.83 378.84 275.23"/><polygon class="cls-3" points="366.64 274.63 378.87 275.24 370.56 287.23 366.64 274.63"/><polygon class="cls-3" points="378.37 312.33 390.59 312.94 382.29 324.93 378.37 312.33"/><polygon class="cls-4" points="362.9 262.23 375.14 262.87 366.79 274.86 362.9 262.23"/><polygon class="cls-4" points="371.21 250.3 383.46 250.94 375.11 262.93 371.21 250.3"/><polygon class="cls-4" points="359.03 249.66 371.28 250.31 362.92 262.3 359.03 249.66"/><polygon class="cls-4" points="379.54 238.33 391.78 238.98 383.43 250.97 379.54 238.33"/><polygon class="cls-4" points="367.36 237.7 379.6 238.35 371.25 250.34 367.36 237.7"/><polygon class="cls-4" points="387.87 226.39 400.12 227.04 391.76 239.03 387.87 226.39"/><polygon class="cls-4" points="375.69 225.76 387.94 226.41 379.58 238.4 375.69 225.76"/><polygon class="cls-4" points="363.46 225.11 375.71 225.76 367.36 237.75 363.46 225.11"/><polygon class="cls-4" points="351.28 224.48 363.53 225.13 355.18 237.11 351.28 224.48"/><polygon class="cls-4" points="384.01 213.8 396.26 214.45 387.9 226.44 384.01 213.8"/><polygon class="cls-4" points="371.79 213.16 384.04 213.8 375.68 225.79 371.79 213.16"/><polygon class="cls-4" points="359.61 212.52 371.85 213.17 363.5 225.16 359.61 212.52"/><polygon class="cls-4" points="347.39 211.86 359.64 212.5 351.29 224.49 347.39 211.86"/><polygon class="cls-4" points="380.13 201.18 392.38 201.83 384.02 213.82 380.13 201.18"/><polygon class="cls-4" points="367.95 200.55 380.19 201.2 371.84 213.19 367.95 200.55"/><polygon class="cls-4" points="355.73 199.89 367.98 200.53 359.63 212.52 355.73 199.89"/><polygon class="cls-4" points="343.52 199.25 355.76 199.89 347.41 211.88 343.52 199.25"/><polygon class="cls-4" points="355.16 237.05 367.4 237.7 359.05 249.69 355.16 237.05"/><polygon class="cls-4" points="289.97 258.45 302.22 259.1 293.87 271.09 289.97 258.45"/><polygon class="cls-4" points="298.29 246.52 310.54 247.17 302.18 259.16 298.29 246.52"/><polygon class="cls-4" points="286.11 245.89 298.36 246.54 290 258.52 286.11 245.89"/><polygon class="cls-4" points="306.62 234.56 318.86 235.21 310.51 247.19 306.62 234.56"/><polygon class="cls-4" points="294.43 233.93 306.68 234.57 298.32 246.56 294.43 233.93"/><polygon class="cls-4" points="314.95 222.62 327.19 223.27 318.84 235.25 314.95 222.62"/><polygon class="cls-4" points="302.77 221.99 315.01 222.63 306.66 234.62 302.77 221.99"/><polygon class="cls-4" points="290.54 221.34 302.79 221.98 294.44 233.97 290.54 221.34"/><polygon class="cls-4" points="278.36 220.7 290.61 221.35 282.25 233.34 278.36 220.7"/><polygon class="cls-4" points="323.27 210.66 335.52 211.31 327.16 223.3 323.27 210.66"/><polygon class="cls-4" points="311.09 210.03 323.34 210.68 314.98 222.66 311.09 210.03"/><polygon class="cls-4" points="298.87 209.38 311.11 210.03 302.76 222.02 298.87 209.38"/><polygon class="cls-4" points="286.69 208.75 298.93 209.4 290.58 221.38 286.69 208.75"/><polygon class="cls-4" points="274.47 208.08 286.72 208.73 278.36 220.72 274.47 208.08"/><polygon class="cls-4" points="331.61 198.69 343.86 199.34 335.5 211.33 331.61 198.69"/><polygon class="cls-4" points="319.43 198.06 331.68 198.7 323.32 210.69 319.43 198.06"/><polygon class="cls-4" points="307.21 197.41 319.45 198.06 311.1 210.04 307.21 197.41"/><polygon class="cls-4" points="295.02 196.78 307.27 197.42 298.92 209.41 295.02 196.78"/><polygon class="cls-4" points="282.81 196.11 295.06 196.76 286.7 208.75 282.81 196.11"/><polygon class="cls-4" points="270.59 195.47 282.84 196.12 274.49 208.11 270.59 195.47"/><polygon class="cls-4" points="282.23 233.28 294.48 233.92 286.13 245.91 282.23 233.28"/></g></svg>