<svg id="Слой_1" data-name="Слой 1" xmlns="http://www.w3.org/2000/svg" xmlns:xlink="http://www.w3.org/1999/xlink" viewBox="0 0 390 560"><defs><style>.cls-1{fill:none;}.cls-2{clip-path:url(#clip-path);}.cls-3{fill:#0669b1;}.cls-4{fill:#ffe73c;}</style><clipPath id="clip-path"><rect class="cls-1" width="390" height="560"/></clipPath></defs><g class="cls-2"><polygon class="cls-3" points="2124.48 370.32 -1732.03 168.11 -1732.03 1.49 2124.48 0 2124.48 370.32"/><polygon class="cls-4" points="2122.03 560 -1734.48 560 -1734.48 167.93 2122.03 364.53 2122.03 560"/><polygon class="cls-4" points="13.9 243.18 27.02 243.87 18.07 256.72 13.9 243.18"/><polygon class="cls-4" points="22.81 230.4 35.93 231.09 26.98 243.93 22.81 230.4"/><polygon class="cls-4" points="9.76 229.72 22.88 230.41 13.93 243.25 9.76 229.72"/><polygon class="cls-4" points="31.73 217.58 44.85 218.27 35.9 231.12 31.73 217.58"/><polygon class="cls-4" points="18.68 216.9 31.8 217.59 22.85 230.44 18.68 216.9"/><polygon class="cls-4" points="40.66 204.78 53.78 205.48 44.83 218.32 40.66 204.78"/><polygon class="cls-4" points="27.6 204.1 40.73 204.8 31.77 217.64 27.6 204.1"/><polygon class="cls-4" points="14.51 203.41 27.63 204.1 18.68 216.95 14.51 203.41"/><polygon class="cls-4" points="1.46 202.73 14.58 203.42 5.63 216.27 1.46 202.73"/><polygon class="cls-4" points="49.58 191.97 62.7 192.67 53.75 205.51 49.58 191.97"/><polygon class="cls-4" points="36.52 191.29 49.65 191.99 40.69 204.83 36.52 191.29"/><polygon class="cls-4" points="23.43 190.6 36.55 191.29 27.6 204.14 23.43 190.6"/><polygon class="cls-4" points="10.38 189.92 23.5 190.61 14.54 203.46 10.38 189.92"/><polygon class="cls-4" points="-2.71 189.21 10.41 189.9 1.46 202.75 -2.71 189.21"/><polygon class="cls-4" points="58.51 179.15 71.63 179.84 62.68 192.68 58.51 179.15"/><polygon class="cls-4" points="45.46 178.47 58.58 179.16 49.63 192 45.46 178.47"/><polygon class="cls-4" points="32.36 177.77 45.48 178.47 36.53 191.31 32.36 177.77"/><polygon class="cls-4" points="19.31 177.09 32.43 177.79 23.48 190.63 19.31 177.09"/><polygon class="cls-4" points="6.22 176.38 19.35 177.07 10.39 189.92 6.22 176.38"/><polygon class="cls-4" points="-6.87 175.7 6.25 176.39 -2.7 189.24 -6.87 175.7"/><polygon class="cls-4" points="5.61 216.2 18.73 216.9 9.78 229.74 5.61 216.2"/><polygon class="cls-3" points="-12.72 281.58 0.4 282.27 -8.55 295.12 -12.72 281.58"/><polygon class="cls-3" points="-3.8 268.77 9.32 269.46 0.37 282.31 -3.8 268.77"/><polygon class="cls-3" points="5.13 255.94 18.26 256.63 9.3 269.48 5.13 255.94"/><polygon class="cls-3" points="-7.92 255.26 5.21 255.96 -3.75 268.8 -7.92 255.26"/><polygon class="cls-3" points="38.89 324.11 52.01 324.76 43.11 337.63 38.89 324.11"/><polygon class="cls-3" points="47.76 311.29 60.88 311.94 51.97 324.82 47.76 311.29"/><polygon class="cls-3" points="34.7 310.66 47.82 311.31 38.92 324.19 34.7 310.66"/><polygon class="cls-3" points="56.63 298.44 69.75 299.09 60.85 311.97 56.63 298.44"/><polygon class="cls-3" points="43.57 297.81 56.7 298.46 47.79 311.33 43.57 297.81"/><polygon class="cls-3" points="65.51 285.62 78.64 286.27 69.73 299.14 65.51 285.62"/><polygon class="cls-3" points="52.46 284.99 65.58 285.63 56.67 298.51 52.46 284.99"/><polygon class="cls-3" points="39.36 284.34 52.48 284.99 43.58 297.86 39.36 284.34"/><polygon class="cls-3" points="26.3 283.71 39.43 284.35 30.52 297.23 26.3 283.71"/><polygon class="cls-3" points="74.39 272.78 87.51 273.43 78.6 286.3 74.39 272.78"/><polygon class="cls-3" points="61.33 272.14 74.45 272.79 65.55 285.67 61.33 272.14"/><polygon class="cls-3" points="48.23 271.5 61.36 272.14 52.45 285.02 48.23 271.5"/><polygon class="cls-3" points="35.18 270.87 48.3 271.51 39.4 284.39 35.18 270.87"/><polygon class="cls-3" points="22.09 270.2 35.21 270.85 26.31 283.72 22.09 270.2"/><polygon class="cls-3" points="83.28 259.92 96.4 260.57 87.49 273.44 83.28 259.92"/><polygon class="cls-3" points="70.22 259.29 83.34 259.93 74.44 272.81 70.22 259.29"/><polygon class="cls-3" points="57.12 258.64 70.25 259.29 61.34 272.16 57.12 258.64"/><polygon class="cls-3" points="44.07 258.01 57.19 258.65 48.28 271.53 44.07 258.01"/><polygon class="cls-3" points="30.98 257.34 44.1 257.99 35.2 270.86 30.98 257.34"/><polygon class="cls-3" points="17.89 256.7 31.01 257.35 22.1 270.23 17.89 256.7"/><polygon class="cls-3" points="30.5 297.16 43.63 297.81 34.72 310.69 30.5 297.16"/><polygon class="cls-4" points="-35.23 333.79 -26.33 320.93 -26.33 320.93 -17.45 308.08 -17.46 308.08 -8.55 295.21 -8.55 295.22 0.31 282.41 0.3 282.41 9.2 269.53 9.2 269.54 18.07 256.72 22.29 270.24 22.28 270.24 26.48 283.69 26.46 283.69 30.65 297.12 30.65 297.12 34.87 310.63 34.87 310.63 39.09 324.15 39.08 324.15 43.29 337.65 30.19 337 30.2 337.01 17.07 336.36 17.09 336.34 4.05 335.7 4.05 335.71 -9.07 335.07 -9.07 335.06 -22.1 334.42 -22.1 334.43 -35.23 333.79"/><polygon class="cls-3" points="-8.54 295.26 -4.36 308.65 4.46 295.9 -8.54 295.26"/><polygon class="cls-3" points="0.34 282.41 4.52 295.83 13.36 283.05 0.34 282.41"/><polygon class="cls-3" points="17.56 296.54 17.55 296.54 17.55 296.54 4.54 295.9 4.55 295.91 4.52 295.9 8.71 309.34 17.56 296.54"/><polygon class="cls-3" points="8.74 309.37 12.92 322.77 21.75 310.01 8.74 309.37"/><polygon class="cls-3" points="9.22 269.6 13.4 282.98 22.21 270.24 9.22 269.6"/><polygon class="cls-3" points="13.42 283.05 13.42 283.06 13.4 283.06 17.59 296.49 26.44 283.69 13.42 283.05"/><polygon class="cls-3" points="17.62 296.55 21.79 309.93 30.61 297.19 17.62 296.55"/><polygon class="cls-3" points="21.81 310 21.82 310.01 21.8 310.01 25.99 323.46 34.86 310.64 21.81 310"/><polygon class="cls-3" points="30.18 336.98 39.06 324.15 25.98 323.51 30.18 336.98"/><polygon class="cls-3" points="17.1 336.32 25.97 323.5 25.96 323.5 25.98 323.49 12.94 322.84 12.94 322.85 12.9 322.85 17.1 336.32"/><polygon class="cls-3" points="4.03 335.63 12.87 322.85 -0.16 322.21 4.03 335.63"/><polygon class="cls-3" points="8.7 309.37 8.69 309.37 8.69 309.36 -4.34 308.72 -4.34 308.73 -4.36 308.73 -0.16 322.18 8.7 309.37"/><polygon class="cls-3" points="336.54 335.1 348.77 335.71 340.46 347.7 336.54 335.1"/><polygon class="cls-3" points="344.81 323.17 357.04 323.78 348.73 335.77 344.81 323.17"/><polygon class="cls-3" points="332.65 322.57 344.88 323.18 336.57 335.17 332.65 322.57"/><polygon class="cls-3" points="353.09 311.2 365.31 311.82 357.01 323.81 353.09 311.2"/><polygon class="cls-3" points="340.93 310.61 353.15 311.22 344.85 323.21 340.93 310.61"/><polygon class="cls-3" points="361.37 299.26 373.6 299.88 365.29 311.87 361.37 299.26"/><polygon class="cls-3" points="349.21 298.67 361.44 299.28 353.13 311.27 349.21 298.67"/><polygon class="cls-3" points="337.01 298.05 349.23 298.67 340.93 310.65 337.01 298.05"/><polygon class="cls-3" points="324.85 297.46 337.07 298.07 328.77 310.06 324.85 297.46"/><polygon class="cls-3" points="369.64 287.31 381.87 287.92 373.57 299.91 369.64 287.31"/><polygon class="cls-3" points="357.49 286.71 369.71 287.32 361.4 299.31 357.49 286.71"/><polygon class="cls-3" points="345.28 286.1 357.51 286.71 349.2 298.7 345.28 286.1"/><polygon class="cls-3" points="333.12 285.5 345.35 286.11 337.04 298.1 333.12 285.5"/><polygon class="cls-3" points="320.93 284.87 333.15 285.48 324.85 297.47 320.93 284.87"/><polygon class="cls-3" points="377.94 275.33 390.16 275.94 381.86 287.94 377.94 275.33"/><polygon class="cls-3" points="365.77 274.74 378 275.35 369.69 287.34 365.77 274.74"/><polygon class="cls-3" points="353.57 274.12 365.8 274.74 357.49 286.73 353.57 274.12"/><polygon class="cls-3" points="341.41 273.53 353.64 274.14 345.33 286.13 341.41 273.53"/><polygon class="cls-3" points="329.22 272.9 341.45 273.51 333.14 285.5 329.22 272.9"/><polygon class="cls-3" points="317.02 272.29 329.25 272.9 320.94 284.89 317.02 272.29"/><polygon class="cls-3" points="328.75 309.99 340.97 310.61 332.67 322.6 328.75 309.99"/><polygon class="cls-3" points="389.95 276.01 402.18 276.63 393.87 288.62 389.95 276.01"/><polygon class="cls-4" points="386.21 263.62 398.45 264.26 390.1 276.25 386.21 263.62"/><polygon class="cls-4" points="382.34 251.05 394.59 251.7 386.23 263.69 382.34 251.05"/><polygon class="cls-4" points="386.78 226.5 399.02 227.15 390.67 239.14 386.78 226.5"/><polygon class="cls-4" points="374.6 225.87 386.84 226.51 378.49 238.5 374.6 225.87"/><polygon class="cls-4" points="382.92 213.91 395.17 214.56 386.81 226.55 382.92 213.91"/><polygon class="cls-4" points="370.71 213.25 382.95 213.89 374.6 225.88 370.71 213.25"/><polygon class="cls-4" points="379.05 201.28 391.29 201.92 382.94 213.91 379.05 201.28"/><polygon class="cls-4" points="366.83 200.63 379.07 201.28 370.72 213.27 366.83 200.63"/><polygon class="cls-4" points="378.47 238.44 390.71 239.09 382.36 251.07 378.47 238.44"/><polygon class="cls-4" points="313.29 259.84 325.53 260.49 317.18 272.48 313.29 259.84"/><polygon class="cls-4" points="321.6 247.91 333.85 248.56 325.49 260.55 321.6 247.91"/><polygon class="cls-4" points="309.42 247.28 321.67 247.92 313.31 259.91 309.42 247.28"/><polygon class="cls-4" points="329.93 235.95 342.17 236.59 333.82 248.58 329.93 235.95"/><polygon class="cls-4" points="317.75 235.31 329.99 235.96 321.64 247.95 317.75 235.31"/><polygon class="cls-4" points="338.26 224.01 350.51 224.65 342.15 236.64 338.26 224.01"/><polygon class="cls-4" points="326.08 223.37 338.32 224.02 329.97 236.01 326.08 223.37"/><polygon class="cls-4" points="313.86 222.73 326.1 223.37 317.75 235.36 313.86 222.73"/><polygon class="cls-4" points="301.67 222.09 313.92 222.74 305.56 234.73 301.67 222.09"/><polygon class="cls-4" points="346.58 212.05 358.83 212.7 350.48 224.69 346.58 212.05"/><polygon class="cls-4" points="334.4 211.42 346.65 212.06 338.29 224.05 334.4 211.42"/><polygon class="cls-4" points="322.18 210.77 334.43 211.42 326.07 223.41 322.18 210.77"/><polygon class="cls-4" points="310 210.14 322.24 210.78 313.89 222.77 310 210.14"/><polygon class="cls-4" points="297.78 209.47 310.03 210.12 301.68 222.11 297.78 209.47"/><polygon class="cls-4" points="354.92 200.08 367.17 200.73 358.81 212.72 354.92 200.08"/><polygon class="cls-4" points="342.74 199.45 354.99 200.09 346.63 212.08 342.74 199.45"/><polygon class="cls-4" points="330.52 198.8 342.77 199.44 334.41 211.43 330.52 198.8"/><polygon class="cls-4" points="318.34 198.16 330.58 198.81 322.23 210.8 318.34 198.16"/><polygon class="cls-4" points="306.12 197.5 318.37 198.15 310.02 210.14 306.12 197.5"/><polygon class="cls-4" points="293.91 196.86 306.15 197.51 297.8 209.5 293.91 196.86"/><polygon class="cls-4" points="305.55 234.66 317.79 235.31 309.44 247.3 305.55 234.66"/></g></svg>