<svg id="Слой_1" data-name="Слой 1" xmlns="http://www.w3.org/2000/svg" xmlns:xlink="http://www.w3.org/1999/xlink" viewBox="0 0 1920 700"><defs><style>.cls-1{fill:none;}.cls-2{clip-path:url(#clip-path);}.cls-3{fill:#0669b1;}.cls-4{fill:#ffe73c;}</style><clipPath id="clip-path"><rect class="cls-1" width="1920" height="700"/></clipPath></defs><g class="cls-2"><polygon class="cls-3" points="3276.58 460.96 -1543.17 208.23 -1543.17 0 3276.58 -1.86 3276.58 460.96"/><polygon class="cls-4" points="3273.52 698.01 -1546.23 698.01 -1546.23 208.01 3273.52 453.71 3273.52 698.01"/><polygon class="cls-4" points="200.46 231.69 264.46 235.07 220.79 297.73 200.46 231.69"/><polygon class="cls-4" points="243.92 169.33 307.93 172.71 264.26 235.37 243.92 169.33"/><polygon class="cls-4" points="180.26 166.02 244.26 169.4 200.6 232.06 180.26 166.02"/><polygon class="cls-4" points="287.43 106.81 351.43 110.19 307.77 172.84 287.43 106.81"/><polygon class="cls-4" points="223.76 103.5 287.77 106.88 244.1 169.53 223.76 103.5"/><polygon class="cls-4" points="330.98 44.41 394.98 47.79 351.32 110.44 330.98 44.41"/><polygon class="cls-4" points="267.31 41.09 331.32 44.48 287.65 107.13 267.31 41.09"/><polygon class="cls-4" points="203.43 37.71 267.44 41.09 223.77 103.75 203.43 37.71"/><polygon class="cls-4" points="139.77 34.4 203.77 37.78 160.11 100.44 139.77 34.4"/><polygon class="cls-4" points="374.48 -18.08 438.49 -14.7 394.82 47.96 374.48 -18.08"/><polygon class="cls-4" points="310.82 -21.39 374.82 -18.01 331.16 44.65 310.82 -21.39"/><polygon class="cls-4" points="246.94 -24.77 310.94 -21.39 267.28 41.26 246.94 -24.77"/><polygon class="cls-4" points="183.27 -28.08 247.28 -24.7 203.61 37.95 183.27 -28.08"/><polygon class="cls-4" points="119.44 -31.56 183.45 -28.18 139.78 34.48 119.44 -31.56"/><polygon class="cls-4" points="160.01 100.11 224.01 103.49 180.35 166.14 160.01 100.11"/><polygon class="cls-4" points="-50.12 27.27 13.88 30.65 -29.78 93.3 -50.12 27.27"/><polygon class="cls-4" points="-6.61 -35.22 57.39 -31.84 13.72 30.82 -6.61 -35.22"/><polygon class="cls-3" points="-59.9 606.28 4.11 609.66 -39.56 672.32 -59.9 606.28"/><polygon class="cls-3" points="-16.43 543.93 47.58 547.31 3.91 609.97 -16.43 543.93"/><polygon class="cls-3" points="27.07 481.4 91.08 484.78 47.41 547.44 27.07 481.4"/><polygon class="cls-3" points="-36.59 478.09 27.41 481.47 -16.25 544.13 -36.59 478.09"/><polygon class="cls-3" points="70.63 419 134.63 422.38 90.96 485.04 70.63 419"/><polygon class="cls-3" points="6.96 415.69 70.96 419.07 27.3 481.73 6.96 415.69"/><polygon class="cls-3" points="-56.92 412.31 7.08 415.69 -36.58 478.34 -56.92 412.31"/><polygon class="cls-3" points="114.13 356.52 178.13 359.9 134.47 422.56 114.13 356.52"/><polygon class="cls-3" points="50.46 353.21 114.47 356.59 70.8 419.25 50.46 353.21"/><polygon class="cls-3" points="-13.41 349.82 50.59 353.2 6.92 415.86 -13.41 349.82"/><polygon class="cls-3" points="157.72 293.95 221.72 297.33 178.05 359.99 157.72 293.95"/><polygon class="cls-3" points="94.05 290.64 158.05 294.02 114.39 356.68 94.05 290.64"/><polygon class="cls-3" points="30.17 287.25 94.17 290.63 50.51 353.29 30.17 287.25"/><polygon class="cls-3" points="-33.5 283.94 30.51 287.32 -13.16 349.98 -33.5 283.94"/><polygon class="cls-3" points="322.35 626.45 386.37 629.6 342.92 692.41 322.35 626.45"/><polygon class="cls-3" points="365.6 563.94 429.62 567.09 386.17 629.9 365.6 563.94"/><polygon class="cls-3" points="301.92 560.85 365.94 564 322.49 626.82 301.92 560.85"/><polygon class="cls-3" points="408.88 501.26 472.9 504.41 429.45 567.22 408.88 501.26"/><polygon class="cls-3" points="345.2 498.17 409.22 501.33 365.78 564.14 345.2 498.17"/><polygon class="cls-3" points="452.21 438.7 516.23 441.86 472.78 504.67 452.21 438.7"/><polygon class="cls-3" points="388.53 435.62 452.55 438.77 409.11 501.58 388.53 435.62"/><polygon class="cls-3" points="324.64 432.46 388.66 435.61 345.21 498.42 324.64 432.46"/><polygon class="cls-3" points="260.97 429.37 324.98 432.53 281.54 495.34 260.97 429.37"/><polygon class="cls-3" points="495.5 376.07 559.51 379.22 516.07 442.03 495.5 376.07"/><polygon class="cls-3" points="431.82 372.98 495.83 376.13 452.39 438.95 431.82 372.98"/><polygon class="cls-3" points="367.93 369.82 431.94 372.98 388.5 435.79 367.93 369.82"/><polygon class="cls-3" points="304.25 366.74 368.27 369.89 324.82 432.7 304.25 366.74"/><polygon class="cls-3" points="240.41 363.49 304.43 366.64 260.98 429.45 240.41 363.49"/><polygon class="cls-3" points="538.86 313.34 602.88 316.5 559.43 379.31 538.86 313.34"/><polygon class="cls-3" points="475.18 310.26 539.2 313.41 495.75 376.22 475.18 310.26"/><polygon class="cls-3" points="411.29 307.1 475.31 310.25 431.86 373.06 411.29 307.1"/><polygon class="cls-3" points="347.62 304.01 411.63 307.17 368.19 369.98 347.62 304.01"/><polygon class="cls-3" points="283.77 300.76 347.79 303.92 304.35 366.73 283.77 300.76"/><polygon class="cls-3" points="219.91 297.65 283.92 300.8 240.48 363.61 219.91 297.65"/><polygon class="cls-3" points="281.44 495.01 345.45 498.16 302.01 560.97 281.44 495.01"/><polygon class="cls-4" points="-39.15 673.64 4.23 610.92 4.21 610.92 47.54 548.28 47.5 548.28 90.94 485.47 90.96 485.53 134.18 423.05 134.11 423.05 177.56 360.24 177.56 360.25 220.8 297.73 241.38 363.69 241.35 363.69 261.81 429.29 261.75 429.29 282.19 494.81 282.19 494.8 302.74 560.7 302.75 560.68 323.32 626.65 323.29 626.65 343.82 692.49 279.94 689.35 279.95 689.37 215.94 686.22 216 686.12 152.42 682.99 152.43 683.04 88.42 679.89 88.43 679.88 24.85 676.74 24.87 676.79 -39.15 673.64"/><polygon class="cls-3" points="47.72 548.29 68.11 613.69 111.18 551.42 47.72 548.29"/><polygon class="cls-3" points="91.03 485.74 111.39 551.05 154.41 488.86 91.03 485.74"/><polygon class="cls-3" points="134.32 423.06 154.72 488.5 197.82 426.19 134.32 423.06"/><polygon class="cls-3" points="218.33 491.98 218.27 491.98 218.29 491.95 154.83 488.83 154.84 488.88 154.72 488.87 175.16 554.4 218.33 491.98"/><polygon class="cls-3" points="175.28 554.54 195.68 619.93 238.75 557.66 175.28 554.54"/><polygon class="cls-3" points="177.66 360.55 198.01 425.82 240.99 363.67 177.66 360.55"/><polygon class="cls-3" points="198.11 426.15 198.13 426.2 198.01 426.2 218.45 491.72 261.64 429.28 198.11 426.15"/><polygon class="cls-3" points="218.6 491.99 238.96 557.3 281.97 495.12 218.6 491.99"/><polygon class="cls-3" points="239.07 557.63 239.08 557.68 238.98 557.67 259.44 623.29 302.69 560.76 239.07 557.63"/><polygon class="cls-3" points="279.9 689.2 323.17 626.64 259.41 623.5 279.9 689.2"/><polygon class="cls-3" points="216.08 686.02 259.32 623.5 259.3 623.5 259.37 623.4 195.78 620.26 195.8 620.32 195.59 620.31 216.08 686.02"/><polygon class="cls-3" points="152.31 682.66 195.44 620.3 131.89 617.17 152.31 682.66"/><polygon class="cls-3" points="175.1 554.53 175.07 554.53 175.07 554.51 111.5 551.38 111.52 551.43 111.41 551.43 131.87 617.03 175.1 554.53"/><polygon class="cls-3" points="88.51 679.76 131.8 617.16 131.78 617.16 131.79 617.15 68.21 614.02 68.23 614.07 68.02 614.06 88.51 679.76"/><polygon class="cls-3" points="67.88 614.05 4.32 610.92 24.75 676.41 67.88 614.05"/><polygon class="cls-3" points="1446.59 681.1 1510.12 684.27 1466.96 746.58 1446.59 681.1"/><polygon class="cls-3" points="1489.55 619.09 1553.09 622.26 1509.92 684.57 1489.55 619.09"/><polygon class="cls-3" points="1426.36 615.98 1489.89 619.15 1446.73 681.47 1426.36 615.98"/><polygon class="cls-3" points="1532.56 556.91 1596.09 560.08 1552.93 622.39 1532.56 556.91"/><polygon class="cls-3" points="1469.36 553.8 1532.89 556.98 1489.73 619.29 1469.36 553.8"/><polygon class="cls-3" points="1575.6 494.85 1639.14 498.03 1595.97 560.34 1575.6 494.85"/><polygon class="cls-3" points="1512.41 491.75 1575.94 494.92 1532.78 557.23 1512.41 491.75"/><polygon class="cls-3" points="1449 488.56 1512.53 491.74 1469.37 554.05 1449 488.56"/><polygon class="cls-3" points="1385.8 485.46 1449.33 488.63 1406.17 550.94 1385.8 485.46"/><polygon class="cls-3" points="1618.61 432.72 1682.14 435.89 1638.98 498.2 1618.61 432.72"/><polygon class="cls-3" points="1555.41 429.61 1618.94 432.78 1575.78 495.09 1555.41 429.61"/><polygon class="cls-3" points="1492 426.43 1555.53 429.6 1512.37 491.91 1492 426.43"/><polygon class="cls-3" points="1428.8 423.32 1492.34 426.5 1449.17 488.81 1428.8 423.32"/><polygon class="cls-3" points="1365.44 420.06 1428.97 423.23 1385.81 485.54 1365.44 420.06"/><polygon class="cls-3" points="1661.69 370.49 1725.22 373.67 1682.06 435.98 1661.69 370.49"/><polygon class="cls-3" points="1598.49 367.38 1662.03 370.56 1618.86 432.87 1598.49 367.38"/><polygon class="cls-3" points="1535.08 364.2 1598.62 367.38 1555.45 429.69 1535.08 364.2"/><polygon class="cls-3" points="1471.88 361.1 1535.42 364.27 1492.26 426.58 1471.88 361.1"/><polygon class="cls-3" points="1408.52 357.83 1472.06 361.01 1428.89 423.32 1408.52 357.83"/><polygon class="cls-3" points="1345.14 354.69 1408.67 357.87 1365.51 420.18 1345.14 354.69"/><polygon class="cls-3" points="1406.07 550.62 1469.61 553.79 1426.44 616.1 1406.07 550.62"/><polygon class="cls-3" points="1868.55 638.42 1932.09 641.6 1888.92 703.91 1868.55 638.42"/><polygon class="cls-3" points="1805.36 635.32 1868.89 638.49 1825.73 700.8 1805.36 635.32"/><polygon class="cls-3" points="1911.56 576.25 1975.09 579.42 1931.93 641.73 1911.56 576.25"/><polygon class="cls-3" points="1848.36 573.14 1911.89 576.32 1868.73 638.63 1848.36 573.14"/><polygon class="cls-3" points="1891.4 511.08 1954.94 514.26 1911.78 576.57 1891.4 511.08"/><polygon class="cls-3" points="1828 507.9 1891.53 511.08 1848.37 573.39 1828 507.9"/><polygon class="cls-3" points="1764.8 504.8 1828.33 507.97 1785.17 570.28 1764.8 504.8"/><polygon class="cls-3" points="1871 445.77 1934.53 448.94 1891.37 511.25 1871 445.77"/><polygon class="cls-3" points="1807.8 442.66 1871.34 445.83 1828.17 508.14 1807.8 442.66"/><polygon class="cls-3" points="1744.44 439.39 1807.97 442.57 1764.81 504.88 1744.44 439.39"/><polygon class="cls-3" points="1914.08 383.54 1977.62 386.72 1934.45 449.03 1914.08 383.54"/><polygon class="cls-3" points="1850.88 380.44 1914.42 383.61 1871.26 445.92 1850.88 380.44"/><polygon class="cls-3" points="1787.52 377.17 1851.06 380.35 1807.89 442.65 1787.52 377.17"/><polygon class="cls-3" points="1724.14 374.03 1787.67 377.2 1744.51 439.51 1724.14 374.03"/><polygon class="cls-3" points="1785.07 569.95 1848.61 573.13 1805.44 635.44 1785.07 569.95"/><polygon class="cls-4" points="1704.68 309.6 1768.32 312.96 1724.9 375.26 1704.68 309.6"/><polygon class="cls-4" points="1747.9 247.59 1811.54 250.96 1768.12 313.26 1747.9 247.59"/><polygon class="cls-4" points="1684.59 244.3 1748.24 247.66 1704.82 309.97 1684.59 244.3"/><polygon class="cls-4" points="1791.16 185.42 1854.8 188.78 1811.38 251.09 1791.16 185.42"/><polygon class="cls-4" points="1727.85 182.13 1791.49 185.49 1748.07 247.8 1727.85 182.13"/><polygon class="cls-4" points="1834.46 123.37 1898.11 126.73 1854.69 189.04 1834.46 123.37"/><polygon class="cls-4" points="1771.15 120.08 1834.8 123.44 1791.38 185.75 1771.15 120.08"/><polygon class="cls-4" points="1707.64 116.71 1771.28 120.08 1727.86 182.38 1707.64 116.71"/><polygon class="cls-4" points="1644.33 113.42 1707.97 116.78 1664.55 179.09 1644.33 113.42"/><polygon class="cls-4" points="1877.72 61.24 1941.37 64.6 1897.95 126.91 1877.72 61.24"/><polygon class="cls-4" points="1814.41 57.95 1878.06 61.31 1834.64 123.62 1814.41 57.95"/><polygon class="cls-4" points="1750.9 54.58 1814.54 57.95 1771.12 120.25 1750.9 54.58"/><polygon class="cls-4" points="1687.59 51.29 1751.23 54.65 1707.81 116.96 1687.59 51.29"/><polygon class="cls-4" points="1624.12 47.84 1687.76 51.2 1644.34 113.5 1624.12 47.84"/><polygon class="cls-4" points="1857.76 -4.27 1921.4 -0.91 1877.98 61.4 1857.76 -4.27"/><polygon class="cls-4" points="1794.24 -7.63 1857.88 -4.27 1814.46 58.03 1794.24 -7.63"/><polygon class="cls-4" points="1730.93 -10.93 1794.57 -7.56 1751.15 54.74 1730.93 -10.93"/><polygon class="cls-4" points="1667.46 -14.38 1731.1 -11.02 1687.68 51.29 1667.46 -14.38"/><polygon class="cls-4" points="1603.96 -17.7 1667.61 -14.34 1624.19 47.96 1603.96 -17.7"/><polygon class="cls-4" points="1664.46 178.76 1728.1 182.12 1684.68 244.42 1664.46 178.76"/><polygon class="cls-4" points="1325.71 289.99 1389.36 293.35 1345.94 355.65 1325.71 289.99"/><polygon class="cls-4" points="1368.94 227.98 1432.58 231.34 1389.16 293.65 1368.94 227.98"/><polygon class="cls-4" points="1305.63 224.69 1369.27 228.05 1325.85 290.35 1305.63 224.69"/><polygon class="cls-4" points="1412.19 165.81 1475.84 169.17 1432.42 231.47 1412.19 165.81"/><polygon class="cls-4" points="1348.89 162.52 1412.53 165.88 1369.11 228.18 1348.89 162.52"/><polygon class="cls-4" points="1455.5 103.76 1519.14 107.12 1475.72 169.43 1455.5 103.76"/><polygon class="cls-4" points="1392.19 100.47 1455.84 103.83 1412.42 166.13 1392.19 100.47"/><polygon class="cls-4" points="1328.67 97.1 1392.32 100.46 1348.9 162.77 1328.67 97.1"/><polygon class="cls-4" points="1265.37 93.81 1329.01 97.17 1285.59 159.47 1265.37 93.81"/><polygon class="cls-4" points="1498.76 41.63 1562.4 44.99 1518.98 107.29 1498.76 41.63"/><polygon class="cls-4" points="1435.45 38.34 1499.1 41.7 1455.68 104 1435.45 38.34"/><polygon class="cls-4" points="1371.93 34.97 1435.58 38.33 1392.16 100.64 1371.93 34.97"/><polygon class="cls-4" points="1308.63 31.68 1372.27 35.04 1328.85 97.34 1308.63 31.68"/><polygon class="cls-4" points="1245.16 28.23 1308.8 31.59 1265.38 93.89 1245.16 28.23"/><polygon class="cls-4" points="1542.1 -20.59 1605.74 -17.23 1562.32 45.08 1542.1 -20.59"/><polygon class="cls-4" points="1478.79 -23.88 1542.43 -20.52 1499.02 41.78 1478.79 -23.88"/><polygon class="cls-4" points="1415.27 -27.25 1478.92 -23.89 1435.5 38.42 1415.27 -27.25"/><polygon class="cls-4" points="1351.97 -30.54 1415.61 -27.18 1372.19 35.13 1351.97 -30.54"/><polygon class="cls-4" points="1288.5 -33.99 1352.14 -30.63 1308.72 31.67 1288.5 -33.99"/><polygon class="cls-4" points="1225 -37.32 1288.64 -33.96 1245.22 28.35 1225 -37.32"/><polygon class="cls-4" points="1285.49 159.15 1349.14 162.51 1305.72 224.81 1285.49 159.15"/></g></svg>