<svg id="Слой_1" data-name="Слой 1" xmlns="http://www.w3.org/2000/svg" xmlns:xlink="http://www.w3.org/1999/xlink" viewBox="0 0 1920 700"><defs><style>.cls-1{fill:none;}.cls-2{clip-path:url(#clip-path);}.cls-3{fill:#0669b1;}.cls-4{fill:#ffe73c;}</style><clipPath id="clip-path"><rect class="cls-1" width="1920" height="700"/></clipPath></defs><g class="cls-2"><polygon class="cls-3" points="3276.58 460.96 -1543.17 208.23 -1543.17 0 3276.58 -1.86 3276.58 460.96"/><polygon class="cls-4" points="3273.52 698.01 -1546.23 698.01 -1546.23 208.01 3273.52 453.71 3273.52 698.01"/><polygon class="cls-4" points="200.07 232.62 264.07 236 220.41 298.66 200.07 232.62"/><polygon class="cls-4" points="243.54 170.26 307.54 173.64 263.88 236.3 243.54 170.26"/><polygon class="cls-4" points="179.87 166.95 243.88 170.33 200.21 232.99 179.87 166.95"/><polygon class="cls-4" points="287.04 107.74 351.05 111.12 307.38 173.78 287.04 107.74"/><polygon class="cls-4" points="223.38 104.43 287.38 107.81 243.71 170.46 223.38 104.43"/><polygon class="cls-4" points="330.59 45.34 394.6 48.72 350.93 111.37 330.59 45.34"/><polygon class="cls-4" points="266.93 42.02 330.93 45.41 287.26 108.06 266.93 42.02"/><polygon class="cls-4" points="203.05 38.64 267.05 42.02 223.38 104.68 203.05 38.64"/><polygon class="cls-4" points="139.38 35.33 203.38 38.71 159.72 101.37 139.38 35.33"/><polygon class="cls-4" points="374.1 -17.15 438.1 -13.77 394.44 48.89 374.1 -17.15"/><polygon class="cls-4" points="310.43 -20.46 374.44 -17.08 330.77 45.58 310.43 -20.46"/><polygon class="cls-4" points="246.55 -23.84 310.56 -20.46 266.89 42.19 246.55 -23.84"/><polygon class="cls-4" points="182.89 -27.16 246.89 -23.77 203.22 38.88 182.89 -27.16"/><polygon class="cls-4" points="119.06 -30.63 183.06 -27.25 139.4 35.41 119.06 -30.63"/><polygon class="cls-4" points="159.62 101.03 223.63 104.42 179.96 167.07 159.62 101.03"/><polygon class="cls-4" points="-50.12 27.27 13.88 30.65 -29.78 93.3 -50.12 27.27"/><polygon class="cls-4" points="-6.61 -35.22 57.39 -31.84 13.72 30.82 -6.61 -35.22"/><polygon class="cls-3" points="-58.96 606.8 5.05 610.18 -38.62 672.84 -58.96 606.8"/><polygon class="cls-3" points="-15.49 544.44 48.52 547.82 4.85 610.48 -15.49 544.44"/><polygon class="cls-3" points="28.02 481.92 92.02 485.3 48.35 547.96 28.02 481.92"/><polygon class="cls-3" points="-35.65 478.61 28.35 481.99 -15.31 544.65 -35.65 478.61"/><polygon class="cls-3" points="71.57 419.52 135.57 422.9 91.91 485.56 71.57 419.52"/><polygon class="cls-3" points="7.9 416.21 71.9 419.59 28.24 482.24 7.9 416.21"/><polygon class="cls-3" points="-55.98 412.82 8.03 416.2 -35.64 478.86 -55.98 412.82"/><polygon class="cls-3" points="115.07 357.03 179.08 360.41 135.41 423.07 115.07 357.03"/><polygon class="cls-3" points="51.41 353.72 115.41 357.1 71.74 419.76 51.41 353.72"/><polygon class="cls-3" points="-12.47 350.34 51.53 353.72 7.87 416.38 -12.47 350.34"/><polygon class="cls-3" points="158.66 294.46 222.66 297.84 179 360.5 158.66 294.46"/><polygon class="cls-3" points="94.99 291.15 159 294.53 115.33 357.19 94.99 291.15"/><polygon class="cls-3" points="31.11 287.77 95.12 291.15 51.45 353.81 31.11 287.77"/><polygon class="cls-3" points="-32.55 284.46 31.45 287.84 -12.21 350.49 -32.55 284.46"/><polygon class="cls-3" points="323.29 626.96 387.31 630.12 343.86 692.93 323.29 626.96"/><polygon class="cls-3" points="366.54 564.45 430.56 567.61 387.11 630.42 366.54 564.45"/><polygon class="cls-3" points="302.86 561.37 366.88 564.52 323.44 627.33 302.86 561.37"/><polygon class="cls-3" points="409.82 501.77 473.84 504.93 430.39 567.74 409.82 501.77"/><polygon class="cls-3" points="346.14 498.69 410.16 501.84 366.72 564.65 346.14 498.69"/><polygon class="cls-3" points="453.15 439.22 517.17 442.37 473.73 505.19 453.15 439.22"/><polygon class="cls-3" points="389.48 436.13 453.49 439.29 410.05 502.1 389.48 436.13"/><polygon class="cls-3" points="325.58 432.97 389.6 436.13 346.16 498.94 325.58 432.97"/><polygon class="cls-3" points="261.91 429.89 325.92 433.04 282.48 495.85 261.91 429.89"/><polygon class="cls-3" points="496.44 376.58 560.45 379.74 517.01 442.55 496.44 376.58"/><polygon class="cls-3" points="432.76 373.5 496.78 376.65 453.33 439.46 432.76 373.5"/><polygon class="cls-3" points="368.87 370.34 432.88 373.49 389.44 436.3 368.87 370.34"/><polygon class="cls-3" points="305.19 367.25 369.21 370.41 325.76 433.22 305.19 367.25"/><polygon class="cls-3" points="241.35 364 305.37 367.16 261.92 429.97 241.35 364"/><polygon class="cls-3" points="539.8 313.86 603.82 317.01 560.37 379.82 539.8 313.86"/><polygon class="cls-3" points="476.12 310.77 540.14 313.93 496.7 376.74 476.12 310.77"/><polygon class="cls-3" points="412.23 307.61 476.25 310.77 432.81 373.58 412.23 307.61"/><polygon class="cls-3" points="348.56 304.53 412.57 307.68 369.13 370.49 348.56 304.53"/><polygon class="cls-3" points="284.71 301.28 348.73 304.44 305.29 367.25 284.71 301.28"/><polygon class="cls-3" points="220.85 298.16 284.86 301.32 241.42 364.13 220.85 298.16"/><polygon class="cls-3" points="282.38 495.52 346.4 498.68 302.95 561.49 282.38 495.52"/><polygon class="cls-4" points="-38.21 674.16 5.17 611.43 5.16 611.43 48.48 548.8 48.44 548.8 91.89 485.99 91.91 486.05 135.12 423.57 135.05 423.56 178.5 360.75 178.5 360.76 221.75 298.24 242.32 364.21 242.29 364.21 262.75 429.8 262.69 429.8 283.13 495.32 283.13 495.32 303.68 561.21 303.69 561.2 324.26 627.16 324.23 627.16 344.76 693.01 280.89 689.86 280.89 689.89 216.88 686.74 216.95 686.64 153.36 683.5 153.38 683.56 89.36 680.4 89.37 680.39 25.79 677.26 25.81 677.31 -38.21 674.16"/><polygon class="cls-3" points="48.66 548.81 69.05 614.2 112.12 551.93 48.66 548.81"/><polygon class="cls-3" points="91.97 486.25 112.34 551.57 155.35 489.38 91.97 486.25"/><polygon class="cls-3" points="135.26 423.57 155.67 489.01 198.76 426.7 135.26 423.57"/><polygon class="cls-3" points="219.27 492.5 219.21 492.49 219.23 492.47 155.77 489.34 155.79 489.4 155.66 489.39 176.1 554.91 219.27 492.5"/><polygon class="cls-3" points="176.23 555.05 196.62 620.45 239.69 558.18 176.23 555.05"/><polygon class="cls-3" points="178.6 361.07 198.95 426.33 241.93 364.19 178.6 361.07"/><polygon class="cls-3" points="199.05 426.67 199.07 426.72 198.95 426.71 219.39 492.24 262.58 429.8 199.05 426.67"/><polygon class="cls-3" points="219.54 492.51 239.91 557.81 282.91 495.63 219.54 492.51"/><polygon class="cls-3" points="240.01 558.14 240.03 558.2 239.92 558.19 260.38 623.81 303.63 561.28 240.01 558.14"/><polygon class="cls-3" points="280.84 689.72 324.11 627.16 260.35 624.02 280.84 689.72"/><polygon class="cls-3" points="217.02 686.53 260.26 624.01 260.24 624.01 260.31 623.91 196.72 620.78 196.74 620.83 196.53 620.82 217.02 686.53"/><polygon class="cls-3" points="153.26 683.17 196.39 620.82 132.83 617.68 153.26 683.17"/><polygon class="cls-3" points="176.05 555.04 176.01 555.04 176.02 555.03 112.44 551.9 112.46 551.95 112.35 551.95 132.81 617.55 176.05 555.04"/><polygon class="cls-3" points="89.45 680.28 132.74 617.68 132.72 617.68 132.73 617.67 69.16 614.53 69.17 614.59 68.96 614.58 89.45 680.28"/><polygon class="cls-3" points="68.82 614.57 5.27 611.44 25.69 676.93 68.82 614.57"/><polygon class="cls-3" points="1446.59 681.1 1510.12 684.27 1466.96 746.58 1446.59 681.1"/><polygon class="cls-3" points="1489.55 619.09 1553.09 622.26 1509.92 684.57 1489.55 619.09"/><polygon class="cls-3" points="1426.36 615.98 1489.89 619.15 1446.73 681.47 1426.36 615.98"/><polygon class="cls-3" points="1532.56 556.91 1596.09 560.08 1552.93 622.39 1532.56 556.91"/><polygon class="cls-3" points="1469.36 553.8 1532.89 556.98 1489.73 619.29 1469.36 553.8"/><polygon class="cls-3" points="1575.6 494.85 1639.14 498.03 1595.97 560.34 1575.6 494.85"/><polygon class="cls-3" points="1512.41 491.75 1575.94 494.92 1532.78 557.23 1512.41 491.75"/><polygon class="cls-3" points="1449 488.56 1512.53 491.74 1469.37 554.05 1449 488.56"/><polygon class="cls-3" points="1385.8 485.46 1449.33 488.63 1406.17 550.94 1385.8 485.46"/><polygon class="cls-3" points="1618.61 432.72 1682.14 435.89 1638.98 498.2 1618.61 432.72"/><polygon class="cls-3" points="1555.41 429.61 1618.94 432.78 1575.78 495.09 1555.41 429.61"/><polygon class="cls-3" points="1492 426.43 1555.53 429.6 1512.37 491.91 1492 426.43"/><polygon class="cls-3" points="1428.8 423.32 1492.34 426.5 1449.17 488.81 1428.8 423.32"/><polygon class="cls-3" points="1365.44 420.06 1428.97 423.23 1385.81 485.54 1365.44 420.06"/><polygon class="cls-3" points="1661.69 370.49 1725.22 373.67 1682.06 435.98 1661.69 370.49"/><polygon class="cls-3" points="1598.49 367.38 1662.03 370.56 1618.86 432.87 1598.49 367.38"/><polygon class="cls-3" points="1535.08 364.2 1598.62 367.38 1555.45 429.69 1535.08 364.2"/><polygon class="cls-3" points="1471.88 361.1 1535.42 364.27 1492.26 426.58 1471.88 361.1"/><polygon class="cls-3" points="1408.52 357.83 1472.06 361.01 1428.89 423.32 1408.52 357.83"/><polygon class="cls-3" points="1345.14 354.69 1408.67 357.87 1365.51 420.18 1345.14 354.69"/><polygon class="cls-3" points="1406.07 550.62 1469.61 553.79 1426.44 616.1 1406.07 550.62"/><polygon class="cls-3" points="1868.55 638.42 1932.09 641.6 1888.92 703.91 1868.55 638.42"/><polygon class="cls-3" points="1805.36 635.32 1868.89 638.49 1825.73 700.8 1805.36 635.32"/><polygon class="cls-3" points="1911.56 576.25 1975.09 579.42 1931.93 641.73 1911.56 576.25"/><polygon class="cls-3" points="1848.36 573.14 1911.89 576.32 1868.73 638.63 1848.36 573.14"/><polygon class="cls-3" points="1891.4 511.08 1954.94 514.26 1911.78 576.57 1891.4 511.08"/><polygon class="cls-3" points="1828 507.9 1891.53 511.08 1848.37 573.39 1828 507.9"/><polygon class="cls-3" points="1764.8 504.8 1828.33 507.97 1785.17 570.28 1764.8 504.8"/><polygon class="cls-3" points="1871 445.77 1934.53 448.94 1891.37 511.25 1871 445.77"/><polygon class="cls-3" points="1807.8 442.66 1871.34 445.83 1828.17 508.14 1807.8 442.66"/><polygon class="cls-3" points="1744.44 439.39 1807.97 442.57 1764.81 504.88 1744.44 439.39"/><polygon class="cls-3" points="1914.08 383.54 1977.62 386.72 1934.45 449.03 1914.08 383.54"/><polygon class="cls-3" points="1850.88 380.44 1914.42 383.61 1871.26 445.92 1850.88 380.44"/><polygon class="cls-3" points="1787.52 377.17 1851.06 380.35 1807.89 442.65 1787.52 377.17"/><polygon class="cls-3" points="1724.14 374.03 1787.67 377.2 1744.51 439.51 1724.14 374.03"/><polygon class="cls-3" points="1785.07 569.95 1848.61 573.13 1805.44 635.44 1785.07 569.95"/><polygon class="cls-4" points="1704.68 309.6 1768.32 312.96 1724.9 375.26 1704.68 309.6"/><polygon class="cls-4" points="1747.9 247.59 1811.54 250.96 1768.12 313.26 1747.9 247.59"/><polygon class="cls-4" points="1684.59 244.3 1748.24 247.66 1704.82 309.97 1684.59 244.3"/><polygon class="cls-4" points="1791.16 185.42 1854.8 188.78 1811.38 251.09 1791.16 185.42"/><polygon class="cls-4" points="1727.85 182.13 1791.49 185.49 1748.07 247.8 1727.85 182.13"/><polygon class="cls-4" points="1834.46 123.37 1898.11 126.73 1854.69 189.04 1834.46 123.37"/><polygon class="cls-4" points="1771.15 120.08 1834.8 123.44 1791.38 185.75 1771.15 120.08"/><polygon class="cls-4" points="1707.64 116.71 1771.28 120.08 1727.86 182.38 1707.64 116.71"/><polygon class="cls-4" points="1644.33 113.42 1707.97 116.78 1664.55 179.09 1644.33 113.42"/><polygon class="cls-4" points="1877.72 61.24 1941.37 64.6 1897.95 126.91 1877.72 61.24"/><polygon class="cls-4" points="1814.41 57.95 1878.06 61.31 1834.64 123.62 1814.41 57.95"/><polygon class="cls-4" points="1750.9 54.58 1814.54 57.95 1771.12 120.25 1750.9 54.58"/><polygon class="cls-4" points="1687.59 51.29 1751.23 54.65 1707.81 116.96 1687.59 51.29"/><polygon class="cls-4" points="1624.12 47.84 1687.76 51.2 1644.34 113.5 1624.12 47.84"/><polygon class="cls-4" points="1857.76 -4.27 1921.4 -0.91 1877.98 61.4 1857.76 -4.27"/><polygon class="cls-4" points="1794.24 -7.63 1857.88 -4.27 1814.46 58.03 1794.24 -7.63"/><polygon class="cls-4" points="1730.93 -10.93 1794.57 -7.56 1751.15 54.74 1730.93 -10.93"/><polygon class="cls-4" points="1667.46 -14.38 1731.1 -11.02 1687.68 51.29 1667.46 -14.38"/><polygon class="cls-4" points="1603.96 -17.7 1667.61 -14.34 1624.19 47.96 1603.96 -17.7"/><polygon class="cls-4" points="1664.46 178.76 1728.1 182.12 1684.68 244.42 1664.46 178.76"/><polygon class="cls-4" points="1325.71 289.99 1389.36 293.35 1345.94 355.65 1325.71 289.99"/><polygon class="cls-4" points="1368.94 227.98 1432.58 231.34 1389.16 293.65 1368.94 227.98"/><polygon class="cls-4" points="1305.63 224.69 1369.27 228.05 1325.85 290.35 1305.63 224.69"/><polygon class="cls-4" points="1412.19 165.81 1475.84 169.17 1432.42 231.47 1412.19 165.81"/><polygon class="cls-4" points="1348.89 162.52 1412.53 165.88 1369.11 228.18 1348.89 162.52"/><polygon class="cls-4" points="1455.5 103.76 1519.14 107.12 1475.72 169.43 1455.5 103.76"/><polygon class="cls-4" points="1392.19 100.47 1455.84 103.83 1412.42 166.13 1392.19 100.47"/><polygon class="cls-4" points="1328.67 97.1 1392.32 100.46 1348.9 162.77 1328.67 97.1"/><polygon class="cls-4" points="1265.37 93.81 1329.01 97.17 1285.59 159.47 1265.37 93.81"/><polygon class="cls-4" points="1498.76 41.63 1562.4 44.99 1518.98 107.29 1498.76 41.63"/><polygon class="cls-4" points="1435.45 38.34 1499.1 41.7 1455.68 104 1435.45 38.34"/><polygon class="cls-4" points="1371.93 34.97 1435.58 38.33 1392.16 100.64 1371.93 34.97"/><polygon class="cls-4" points="1308.63 31.68 1372.27 35.04 1328.85 97.34 1308.63 31.68"/><polygon class="cls-4" points="1245.16 28.23 1308.8 31.59 1265.38 93.89 1245.16 28.23"/><polygon class="cls-4" points="1542.1 -20.59 1605.74 -17.23 1562.32 45.08 1542.1 -20.59"/><polygon class="cls-4" points="1478.79 -23.88 1542.43 -20.52 1499.02 41.78 1478.79 -23.88"/><polygon class="cls-4" points="1415.27 -27.25 1478.92 -23.89 1435.5 38.42 1415.27 -27.25"/><polygon class="cls-4" points="1351.97 -30.54 1415.61 -27.18 1372.19 35.13 1351.97 -30.54"/><polygon class="cls-4" points="1288.5 -33.99 1352.14 -30.63 1308.72 31.67 1288.5 -33.99"/><polygon class="cls-4" points="1225 -37.32 1288.64 -33.96 1245.22 28.35 1225 -37.32"/><polygon class="cls-4" points="1285.49 159.15 1349.14 162.51 1305.72 224.81 1285.49 159.15"/></g></svg>